<svg width="150" height="150" fill="none" xmlns="http://www.w3.org/2000/svg"><path d="M146.807 115.928L112.5 81.621c-6.768-6.767-16.875-8.086-25.02-4.072l-31.23-31.23V28.124L18.75 0 0 18.75l28.125 37.5h18.193l31.23 31.23c-3.984 8.145-2.695 18.252 4.073 25.02l34.307 34.307c4.277 4.277 11.191 4.277 15.439 0l15.44-15.44c4.248-4.277 4.248-11.191 0-15.439zm-49.63-50.01c8.292 0 16.085 3.223 21.944 9.082l5.684 5.684c4.629-2.022 9.023-4.834 12.832-8.643 10.869-10.87 14.56-26.162 11.103-40.049-.644-2.637-3.955-3.545-5.888-1.611l-21.797 21.797-19.893-3.31-3.31-19.893 21.796-21.797c1.934-1.934.997-5.244-1.669-5.918-13.887-3.428-29.18.263-40.02 11.103-8.35 8.35-12.275 19.366-12.07 30.352L89.94 66.768a31.912 31.912 0 017.237-.85zM66.739 89.941l-16.611-16.61L5.48 118.008c-7.325 7.324-7.325 19.189 0 26.513 7.324 7.325 19.189 7.325 26.513 0l36.211-36.21c-2.226-5.831-2.9-12.188-1.465-18.37zm-47.988 48.34c-3.867 0-7.031-3.164-7.031-7.031a7.014 7.014 0 017.031-7.031 7.015 7.015 0 017.031 7.031 7.033 7.033 0 01-7.031 7.031z" fill="#FFD600"/></svg>