<svg width="150" height="120" fill="none" xmlns="http://www.w3.org/2000/svg"><path d="M114.375 45H78.751v13.125C78.75 67.43 71.18 75 61.874 75 52.57 75 45 67.43 45 58.125v-28.5l-15.211 9.14A14.968 14.968 0 0022.5 51.61v11.086L3.75 73.523C.165 75.587-1.078 80.18 1.008 83.766l18.75 32.484c2.063 3.586 6.657 4.805 10.242 2.742L54.236 105H86.25c8.273 0 14.999-6.727 14.999-15H105c4.149 0 7.5-3.352 7.5-7.5v-15h1.875A5.611 5.611 0 00120 61.875v-11.25A5.611 5.611 0 00114.375 45zm34.618-8.766L130.243 3.75C128.18.164 123.586-1.055 120 1.008L95.766 15H71.813c-2.813 0-5.555.797-7.945 2.273l-7.852 4.899c-2.203 1.36-3.515 3.773-3.515 6.351v29.602a9.372 9.372 0 009.375 9.375 9.373 9.373 0 009.375-9.375V37.5h43.124c7.243 0 13.125 5.883 13.125 13.125v6.68l18.75-10.828a7.509 7.509 0 002.743-10.243z" fill="#FFD600"/></svg>