<svg width="150" height="134" fill="none" xmlns="http://www.w3.org/2000/svg"><path d="M71.693 65.568c1.823 1.927 4.791 1.927 6.64 0l28.36-29.74c8.229-8.646 7.76-22.969-1.459-30.937-8.02-6.953-19.974-5.703-27.317 2.005L75 9.943l-2.89-3.021C64.765-.812 52.812-2.062 44.791 4.89c-9.193 7.968-9.688 22.291-1.459 30.937l28.36 29.74zm75.521 20.208c-3.073-2.786-7.865-2.604-11.094 0l-24.063 19.245c-2.942 2.37-6.614 3.646-10.416 3.646H70.833a4.179 4.179 0 01-4.166-4.167 4.179 4.179 0 014.166-4.167h20.391c4.14 0 7.995-2.838 8.672-6.927.859-5.208-3.151-9.74-8.23-9.74H50a30.65 30.65 0 00-19.297 6.85l-12.11 9.817H4.168A4.179 4.179 0 000 104.5v25a4.179 4.179 0 004.167 4.167h92.916c3.776 0 7.448-1.276 10.417-3.646l39.375-31.51c3.958-3.152 4.271-9.193.339-12.735z" fill="#FFD600"/></svg>