<svg width="150" height="134" viewBox="0 0 150 134" fill="none" xmlns="http://www.w3.org/2000/svg">
<path d="M71.6927 65.5677C73.5156 67.4948 76.4844 67.4948 78.3333 65.5677L106.693 35.8282C114.922 27.1823 114.453 12.8594 105.234 4.89066C97.2135 -2.06246 85.2604 -0.812462 77.9167 6.89587L75 9.94274L72.1094 6.92191C64.7656 -0.812462 52.8125 -2.06246 44.7917 4.89066C35.599 12.8594 35.1042 27.1823 43.3333 35.8282L71.6927 65.5677ZM147.214 85.7761C144.141 82.9896 139.349 83.1719 136.12 85.7761L112.057 105.021C109.115 107.391 105.443 108.667 101.641 108.667H70.8333C68.5417 108.667 66.6667 106.792 66.6667 104.5C66.6667 102.208 68.5417 100.333 70.8333 100.333H91.224C95.3646 100.333 99.2188 97.4948 99.8958 93.4063C100.755 88.1979 96.7448 83.6667 91.6667 83.6667H50C42.9688 83.6667 36.1719 86.0886 30.7031 90.5156L18.5938 100.333H4.16667C1.875 100.333 0 102.208 0 104.5V129.5C0 131.792 1.875 133.667 4.16667 133.667H97.0833C100.859 133.667 104.531 132.391 107.5 130.021L146.875 98.5104C150.833 95.3594 151.146 89.3177 147.214 85.7761Z" fill="#FFD600"/>
</svg>
