<svg width="150" height="120" viewBox="0 0 150 120" fill="none" xmlns="http://www.w3.org/2000/svg">
<path d="M114.375 45.0001H78.7505V58.1251C78.7505 67.4297 71.1801 75.0001 61.8755 75.0001C52.5708 75.0001 45.0005 67.4297 45.0005 58.1251V29.6251L29.7895 38.7657C25.2661 41.461 22.5005 46.3594 22.5005 51.6094V62.6954L3.75046 73.5235C0.164525 75.586 -1.07766 80.1797 1.00828 83.7657L19.7583 116.25C21.8208 119.836 26.4145 121.055 30.0005 118.992L54.2348 105H86.2505C94.5239 105 101.25 98.2735 101.25 90.0001H105C109.149 90.0001 112.5 86.6485 112.5 82.5001V67.5001H114.375C117.493 67.5001 120 64.9922 120 61.8751V50.6251C120 47.5079 117.493 45.0001 114.375 45.0001ZM148.993 36.2344L130.243 3.75006C128.18 0.164119 123.586 -1.05463 120 1.00787L95.7661 15.0001H71.813C69.0005 15.0001 66.2583 15.7969 63.8676 17.2735L56.0161 22.1719C53.813 23.5313 52.5005 25.9454 52.5005 28.5235V58.1251C52.5005 63.3047 56.6958 67.5001 61.8755 67.5001C67.0551 67.5001 71.2505 63.3047 71.2505 58.1251V37.5001H114.375C121.618 37.5001 127.5 43.3829 127.5 50.6251V57.3047L146.25 46.4766C149.836 44.3907 151.055 39.8204 148.993 36.2344Z" fill="#FFD600"/>
</svg>
